<?xml version="1.0" standalone="no"?><!DOCTYPE svg PUBLIC "-//W3C//DTD SVG 1.1//EN" "http://www.w3.org/Graphics/SVG/1.1/DTD/svg11.dtd"><svg class="icon" height="512" viewBox="0 0 1024 1024" version="1.1" xmlns="http://www.w3.org/2000/svg"><path d="M557.138591 717.024826C638.26534 619.135294 799.751077 449.140205 799.751077 290.149691a287.910388 287.910388 0 1 0-575.820775 0c0 159.054494 161.485738 328.985603 242.612487 426.875135a58.733719 58.733719 0 0 0 90.595802 0zM351.890474 290.149691a159.950215 159.950215 0 1 1 319.900431 0 159.950215 159.950215 0 0 1-319.900431 0z" fill="" /><path d="M511.84069 290.149691m-95.97013 0a95.970129 95.970129 0 1 0 191.940259 0 95.970129 95.970129 0 1 0-191.940259 0Z" fill="" /><path d="M961.492735 663.793394a31.990043 31.990043 0 0 0-62.828444 12.028257l48.496905 253.233181-148.4338-85.541376-30.07064-177.096878a31.990043 31.990043 0 0 0-63.084365 10.748654l27.831337 163.789021-407.041308 116.763657-248.306715-112.285051L249.266416 562.384958a31.990043 31.990043 0 1 0-54.702974-33.141685L4.606566 843.257536a31.990043 31.990043 0 0 0 14.203579 45.745762l291.877154 131.926937a32.181983 32.181983 0 0 0 22.009149 1.535523l432.825283-124.121368 210.174584 121.178284a32.118003 32.118003 0 0 0 47.409243-33.717506l-61.612823-321.947794z" fill="" /></svg>